<svg xmlns="http://www.w3.org/2000/svg" viewBox="0 0 640 400" width="640" height="400" role="img" aria-label="Placeholder preview: Nova Campaign Visuals"><rect x="0" y="0" width="640" height="400" fill="#0f1a22"/><rect x="0" y="0" width="640" height="34" fill="#16242f"/><rect x="0" y="34" width="640" height="1" fill="#2b404e"/><rect x="14" y="11" width="12" height="12" fill="#d97757"/><text x="34" y="22" font-family="system-ui,sans-serif" font-size="12" font-weight="600" fill="#dbe7ee">Nova Campaign Visuals</text><rect x="490" y="13" width="40" height="8" fill="#2b404e"/><rect x="540" y="13" width="40" height="8" fill="#2b404e"/><rect x="590" y="13" width="36" height="8" fill="#d97757" opacity="0.85"/><rect x="40" y="60" width="300" height="170" fill="#d97757" opacity="0.9"/><rect x="60" y="150" width="180" height="16" fill="#fff"/><rect x="60" y="176" width="120" height="10" fill="#fff" opacity="0.7"/><rect x="60" y="80" width="28" height="28" fill="#fff" opacity="0.9"/><rect x="40" y="246" width="92" height="92" fill="#d97757" opacity="0.3"/><rect x="50" y="306" width="50" height="8" fill="#fff" opacity="0.9"/><rect x="50" y="320" width="34" height="6" fill="#fff" opacity="0.6"/><rect x="144" y="246" width="92" height="92" fill="#d97757" opacity="0.55"/><rect x="154" y="306" width="50" height="8" fill="#fff" opacity="0.9"/><rect x="154" y="320" width="34" height="6" fill="#fff" opacity="0.6"/><rect x="248" y="246" width="92" height="92" fill="#d97757" opacity="0.8"/><rect x="258" y="306" width="50" height="8" fill="#fff" opacity="0.9"/><rect x="258" y="320" width="34" height="6" fill="#fff" opacity="0.6"/><rect x="370" y="60" width="230" height="300" fill="#16242f"/><rect x="390" y="80" width="190" height="200" fill="#d97757" opacity="0.55"/><rect x="390" y="296" width="150" height="14" fill="#dbe7ee"/><rect x="390" y="320" width="100" height="8" fill="#7d92a4" opacity="0.7"/></svg>
